# xmcd
#
# Track frame offsets:
#	150
#	18290
#	40956
#	59518
#	79396
#	98789
#	118941
#	138986
#
# Disc length: 2099 seconds
#
# Revision: 0
# Processed by: cddbd v1.5.2PL0 Copyright (c) Steve Scherf et al.
# Submitted via: EasyCDDAExtractor 16.1.0.1
#
DISCID=6b083108
DTITLE=Eddy Marc  - Image de Marc
DYEAR=1991
DGENRE=Zouk
TTITLE0=La Vi Pa Fini
TTITLE1=Un Rêve Et Demi
TTITLE2=Bois D'ébène (2ème Version)
TTITLE3=Ti Gason An
TTITLE4=Yesterday (Tout Pour Toi)
TTITLE5=Spécial Dance
TTITLE6=Doucè Pay A
TTITLE7=La Vi Pa Fini (Instrumental)
EXTD=
EXTT0=
EXTT1=
EXTT2=
EXTT3=
EXTT4=
EXTT5=
EXTT6=
EXTT7=
PLAYORDER=
